<?xml version="1.0" encoding="utf-8"?>
<!-- Generator: Adobe Illustrator 25.4.0, SVG Export Plug-In . SVG Version: 6.00 Build 0)  -->
<!DOCTYPE svg PUBLIC "-//W3C//DTD SVG 1.1//EN" "http://www.w3.org/Graphics/SVG/1.1/DTD/svg11.dtd" [
	<!ENTITY ns_extend "http://ns.adobe.com/Extensibility/1.0/">
	<!ENTITY ns_ai "http://ns.adobe.com/AdobeIllustrator/10.0/">
	<!ENTITY ns_graphs "http://ns.adobe.com/Graphs/1.0/">
	<!ENTITY ns_vars "http://ns.adobe.com/Variables/1.0/">
	<!ENTITY ns_imrep "http://ns.adobe.com/ImageReplacement/1.0/">
	<!ENTITY ns_sfw "http://ns.adobe.com/SaveForWeb/1.0/">
	<!ENTITY ns_custom "http://ns.adobe.com/GenericCustomNamespace/1.0/">
	<!ENTITY ns_adobe_xpath "http://ns.adobe.com/XPath/1.0/">
]>
<svg version="1.1" id="Ebene_1" xmlns:x="&ns_extend;" xmlns:i="&ns_ai;" xmlns:graph="&ns_graphs;"
	 xmlns="http://www.w3.org/2000/svg" xmlns:xlink="http://www.w3.org/1999/xlink" x="0px" y="0px" viewBox="0 0 253.5 136"
	 style="enable-background:new 0 0 253.5 136;" xml:space="preserve">
<style type="text/css">
	.st0{fill:#008790;}
	.st1{fill:#133371;}
	
		.st2{clip-path:url(#SVGID_00000038402540572335983520000012668590762117848998_);fill:url(#SVGID_00000150079823653016216000000016427236465873493162_);}
	.st3{clip-path:url(#SVGID_00000038402540572335983520000012668590762117848998_);fill:#FFFFFF;}
	.st4{clip-path:url(#SVGID_00000038402540572335983520000012668590762117848998_);fill:none;stroke:#FFFFFF;stroke-width:0.605;}
	.st5{clip-path:url(#SVGID_00000038402540572335983520000012668590762117848998_);fill:#F18500;}
</style>
<metadata>
	<sfw  xmlns="&ns_sfw;">
		<slices></slices>
		<sliceSourceBounds  bottomLeftOrigin="true" height="87.4" width="201.5" x="23.6" y="-111.9"></sliceSourceBounds>
	</sfw>
</metadata>
<g>
	<path class="st0" d="M127.4,42.9c-0.1,0.1-0.2,0.2-0.2,0.2c0,0-0.1-0.1-0.3-0.2c-0.2-0.1-0.4-0.2-0.7-0.3c-0.3-0.1-0.6-0.2-1-0.3
		c-0.4-0.1-0.7-0.2-1.1-0.2c-0.2,0-0.5,0-0.7,0.1c-0.2,0.1-0.5,0.2-0.7,0.3c-0.2,0.1-0.4,0.3-0.5,0.5c-0.1,0.2-0.2,0.5-0.2,0.8
		c0,0.4,0.1,0.8,0.4,1c0.3,0.3,0.7,0.5,1.1,0.7c0.4,0.2,0.9,0.5,1.5,0.7c0.5,0.2,1,0.5,1.5,0.9c0.6,0.4,1,0.9,1.4,1.5
		c0.4,0.6,0.5,1.3,0.5,2.1c0,0.7-0.1,1.3-0.4,1.9c-0.2,0.6-0.6,1.1-1,1.5c-0.4,0.4-0.9,0.7-1.5,0.9c-0.6,0.2-1.2,0.3-1.9,0.3
		c-0.6,0-1.1-0.1-1.7-0.2c-0.5-0.1-1-0.2-1.5-0.4c-0.4-0.1-0.8-0.3-1.1-0.4c-0.3-0.1-0.4-0.3-0.4-0.4c0,0,0-0.1,0-0.1
		c0-0.1,0-0.1,0.1-0.2l0.5-1.5c0-0.1,0.1-0.2,0.2-0.2c0,0,0.1,0.1,0.4,0.2c0.2,0.1,0.5,0.2,0.8,0.3c0.3,0.1,0.7,0.2,1.1,0.3
		c0.4,0.1,0.9,0.2,1.4,0.2c0.6,0,1.1-0.2,1.5-0.5c0.4-0.3,0.5-0.8,0.5-1.5c0-0.5-0.1-0.9-0.4-1.2c-0.3-0.3-0.6-0.6-1-0.8
		s-0.9-0.5-1.4-0.7c-0.5-0.2-1.1-0.5-1.6-0.8c-0.6-0.4-1.1-0.8-1.4-1.3c-0.3-0.5-0.5-1.2-0.5-2.1c0-0.8,0.1-1.5,0.4-2
		c0.3-0.6,0.6-1,1.1-1.4c0.4-0.4,1-0.6,1.5-0.8c0.6-0.2,1.2-0.3,1.8-0.3c0.5,0,1,0.1,1.6,0.2c0.5,0.1,1,0.2,1.4,0.4
		c0.4,0.1,0.7,0.3,1,0.5c0.2,0.2,0.4,0.3,0.4,0.4c0,0.1,0,0.2-0.1,0.3L127.4,42.9z"/>
	<path class="st0" d="M142.3,54.7c0,0.2,0,0.3-0.1,0.4c-0.1,0.1-0.2,0.1-0.4,0.1h-1.9c-0.2,0-0.3,0-0.4-0.1
		c-0.1-0.1-0.1-0.2-0.1-0.4l-0.2-7.5c0-0.2,0-0.4,0-0.8c0-0.3,0-0.7,0-1c0-0.3,0-0.7,0-1c0-0.3,0-0.6,0-0.8h0c0,0.2-0.1,0.5-0.1,0.8
		c-0.1,0.3-0.1,0.6-0.2,1c-0.1,0.3-0.1,0.7-0.2,1c-0.1,0.3-0.1,0.6-0.2,0.8l-1.3,4.3c0,0.2-0.1,0.3-0.1,0.3c0,0-0.2,0.1-0.4,0.1
		h-1.4c-0.2,0-0.3,0-0.4-0.1c0,0-0.1-0.1-0.1-0.3l-1.3-4.3c-0.1-0.2-0.1-0.4-0.2-0.8c-0.1-0.3-0.1-0.6-0.2-1c-0.1-0.3-0.1-0.6-0.2-1
		c-0.1-0.3-0.1-0.6-0.1-0.8h0c0,0.2,0,0.5,0,0.8c0,0.3,0,0.6,0,1c0,0.3,0,0.7,0,1c0,0.3,0,0.6,0,0.8l-0.2,7.5c0,0.2,0,0.3-0.1,0.4
		s-0.2,0.1-0.4,0.1h-1.6c-0.2,0-0.3,0-0.4-0.1c-0.1-0.1-0.1-0.2-0.1-0.4l0.6-14.1c0-0.2,0-0.3,0.1-0.4c0.1-0.1,0.2-0.1,0.4-0.1h2.1
		c0.2,0,0.3,0,0.3,0.1c0,0,0.1,0.1,0.2,0.3l1.8,5.5c0.1,0.4,0.3,0.9,0.4,1.3c0.1,0.4,0.2,0.9,0.3,1.3h0c0-0.2,0.1-0.4,0.1-0.6
		c0-0.2,0.1-0.3,0.1-0.5c0-0.2,0.1-0.4,0.2-0.6s0.2-0.5,0.3-0.9l1.9-5.5c0.1-0.2,0.1-0.3,0.2-0.3c0,0,0.2-0.1,0.4-0.1h2.1
		c0.2,0,0.3,0,0.4,0.1s0.1,0.3,0.1,0.6L142.3,54.7z"/>
	<path class="st0" d="M146.9,54.7c0,0.2-0.1,0.3-0.1,0.4c-0.1,0.1-0.2,0.1-0.3,0.1h-2.2c-0.3,0-0.4-0.1-0.4-0.2c0-0.1,0-0.1,0-0.2
		s0-0.1,0.1-0.2l4.3-14.2c0-0.1,0.1-0.2,0.1-0.3c0,0,0.2-0.1,0.4-0.1h2.3c0.2,0,0.3,0,0.3,0.1c0.1,0.1,0.1,0.1,0.1,0.3l4.3,14.2
		c0,0,0,0.1,0.1,0.2c0,0.1,0,0.1,0,0.2c0,0.1,0,0.1-0.1,0.1c-0.1,0-0.2,0-0.3,0h-2.5c-0.1,0-0.2,0-0.2-0.1c0-0.1-0.1-0.2-0.1-0.4
		l-1-3.6h-3.8L146.9,54.7z M150.1,45.4c0-0.2-0.1-0.5-0.1-0.7c-0.1-0.3-0.1-0.5-0.1-0.8c0-0.3-0.1-0.5-0.1-0.8
		c0-0.3-0.1-0.5-0.1-0.7h0c0,0.5-0.1,1-0.2,1.6c-0.1,0.6-0.2,1.1-0.3,1.5l-1,3.8h2.9L150.1,45.4z"/>
	<path class="st0" d="M160.3,54.7c0,0.2,0,0.3-0.1,0.4s-0.2,0.1-0.4,0.1h-2c-0.2,0-0.3,0-0.4-0.1c-0.1-0.1-0.1-0.2-0.1-0.4V40.6
		c0-0.2,0-0.3,0.1-0.4c0.1-0.1,0.2-0.1,0.4-0.1h3.6c0.3,0,0.6,0,1,0c0.4,0,0.7,0.1,1.1,0.2c0.4,0.1,0.8,0.2,1.1,0.4
		c0.4,0.2,0.7,0.4,1,0.7c0.3,0.3,0.5,0.7,0.7,1.2c0.2,0.5,0.3,1.1,0.3,1.7c0,0.7-0.1,1.3-0.3,1.8c-0.2,0.5-0.4,0.9-0.7,1.2
		s-0.5,0.5-0.8,0.7c-0.3,0.2-0.5,0.3-0.7,0.4l3.3,5.9c0,0.1,0.1,0.1,0.1,0.2c0,0.1,0.1,0.1,0.1,0.2c0,0.1,0,0.1-0.1,0.2
		c-0.1,0-0.2,0.1-0.3,0.1l-1.8,0.5c-0.1,0-0.2,0-0.3,0c-0.1,0-0.3-0.2-0.5-0.7l-3-5.9h-1.1V54.7z M160.9,46.7c0.4,0,0.7,0,1-0.1
		c0.3,0,0.6-0.1,0.8-0.3c0.2-0.2,0.4-0.4,0.6-0.7c0.1-0.3,0.2-0.7,0.2-1.2c0-0.5-0.1-0.9-0.2-1.1c-0.1-0.3-0.3-0.5-0.6-0.6
		c-0.2-0.1-0.5-0.2-0.8-0.2c-0.3,0-0.6,0-0.8,0h-0.8v4.2H160.9z"/>
	<path class="st0" d="M174.1,54.7c0,0.2,0,0.3-0.1,0.4s-0.2,0.1-0.4,0.1h-2c-0.2,0-0.3,0-0.4-0.1s-0.1-0.2-0.1-0.4v-12h-2.9
		c-0.2,0-0.3,0-0.3-0.1c0,0-0.1-0.1-0.1-0.3v-1.9c0-0.2,0-0.3,0.1-0.3c0,0,0.1-0.1,0.3-0.1h9.1c0.2,0,0.4,0,0.4,0
		c0.1,0,0.1,0.1,0.1,0.2c0,0.1,0,0.1,0,0.1c0,0,0,0.1-0.1,0.2l-0.5,1.7c0,0.2-0.1,0.3-0.2,0.3s-0.2,0-0.3,0h-2.7V54.7z"/>
	<path class="st0" d="M194.1,53.8c0.1,0.1,0.1,0.3,0.1,0.3c0,0.1-0.1,0.2-0.3,0.4c-0.2,0.2-0.4,0.3-0.7,0.5
		c-0.3,0.2-0.7,0.3-1.2,0.4c-0.4,0.1-0.9,0.2-1.5,0.2c-1.9,0-3.4-0.6-4.3-1.9c-0.9-1.3-1.4-3.2-1.4-5.9c0-1.3,0.1-2.4,0.4-3.4
		c0.2-1,0.6-1.8,1.1-2.5c0.5-0.7,1.1-1.2,1.8-1.6c0.7-0.4,1.5-0.5,2.5-0.5c0.4,0,0.8,0.1,1.3,0.2s0.8,0.3,1.2,0.5
		c0.4,0.2,0.6,0.4,0.9,0.5c0.2,0.2,0.3,0.3,0.3,0.4c0,0,0,0.1,0,0.1c0,0.1,0,0.1-0.1,0.2l-0.8,1.2c-0.1,0.1-0.2,0.2-0.3,0.2
		c-0.1,0-0.2-0.1-0.3-0.2c-0.1-0.1-0.3-0.2-0.5-0.4c-0.2-0.1-0.4-0.2-0.6-0.4c-0.2-0.1-0.5-0.2-0.8-0.2c-0.5,0-0.9,0.1-1.2,0.3
		c-0.3,0.2-0.6,0.5-0.8,0.9s-0.4,0.9-0.5,1.6c-0.1,0.7-0.2,1.4-0.2,2.4c0,0.9,0,1.8,0.1,2.5c0.1,0.7,0.2,1.4,0.4,1.9
		c0.2,0.5,0.5,0.9,0.8,1.2c0.4,0.3,0.8,0.4,1.4,0.4c0.3,0,0.6,0,0.8-0.1c0.3-0.1,0.5-0.2,0.7-0.3c0.2-0.1,0.4-0.2,0.5-0.3
		c0.2-0.1,0.3-0.1,0.4-0.1c0.1,0,0.2,0.1,0.2,0.2L194.1,53.8z"/>
	<path class="st0" d="M202,54.7c0,0.2,0,0.3-0.1,0.4s-0.2,0.1-0.4,0.1h-5.4c-0.2,0-0.3,0-0.4-0.1c-0.1-0.1-0.1-0.2-0.1-0.4v-1.2
		c0-0.2,0-0.3,0.1-0.4c0.1-0.1,0.2-0.1,0.4-0.1h1.2V42.2h-1.2c-0.2,0-0.3,0-0.4-0.1c-0.1-0.1-0.1-0.2-0.1-0.4v-1.2
		c0-0.2,0-0.3,0.1-0.4c0.1-0.1,0.2-0.1,0.4-0.1h5.4c0.2,0,0.3,0,0.4,0.1s0.1,0.2,0.1,0.4v1.2c0,0.2,0,0.3-0.1,0.4s-0.2,0.1-0.4,0.1
		h-1.2v10.8h1.2c0.2,0,0.3,0,0.4,0.1s0.1,0.2,0.1,0.4V54.7z"/>
	<path class="st0" d="M209.2,54.7c0,0.2,0,0.3-0.1,0.4c-0.1,0.1-0.2,0.1-0.4,0.1h-2c-0.2,0-0.3,0-0.4-0.1c-0.1-0.1-0.1-0.2-0.1-0.4
		v-12h-2.9c-0.2,0-0.3,0-0.3-0.1c0,0-0.1-0.1-0.1-0.3v-1.9c0-0.2,0-0.3,0.1-0.3c0,0,0.1-0.1,0.3-0.1h9.1c0.2,0,0.4,0,0.4,0
		c0.1,0,0.1,0.1,0.1,0.2c0,0.1,0,0.1,0,0.1c0,0,0,0.1-0.1,0.2l-0.5,1.7c0,0.2-0.1,0.3-0.2,0.3s-0.2,0-0.3,0h-2.7V54.7z"/>
	<path class="st0" d="M220.9,54.7c0,0.2,0,0.3-0.1,0.4s-0.2,0.1-0.4,0.1h-2c-0.2,0-0.3,0-0.4-0.1s-0.1-0.2-0.1-0.4V49l-4.1-8
		c-0.1-0.2-0.2-0.3-0.2-0.5c0-0.1,0.2-0.2,0.5-0.2l2.2-0.4c0.1,0,0.1,0,0.2,0c0,0,0.1,0,0.1,0c0,0,0.1,0,0.2,0.1
		c0.1,0,0.1,0.1,0.2,0.2l1.8,3.8c0.1,0.3,0.3,0.6,0.4,1c0.2,0.4,0.3,0.9,0.5,1.4h0c0.2-0.6,0.4-1.2,0.5-1.6c0.2-0.4,0.3-0.7,0.5-1
		l1.6-3.4c0.1-0.2,0.2-0.3,0.2-0.4c0,0,0.1-0.1,0.2-0.1c0.1,0,0.2,0,0.3,0l1.9,0.4c0.1,0,0.2,0.1,0.3,0.1c0.1,0,0.1,0.1,0.1,0.2
		c0,0,0,0.1,0,0.1c0,0.1-0.1,0.1-0.1,0.2l-4.1,8V54.7z"/>
</g>
<g>
	<path class="st1" d="M137.5,85c0,1.5-0.1,3-0.4,4.4c-0.2,1.4-0.7,2.6-1.4,3.6c-0.7,1-1.7,1.9-2.9,2.5c-1.2,0.6-2.9,0.9-4.9,0.9
		c-1.9,0-3.4-0.3-4.6-1c-1.2-0.7-2.1-1.5-2.7-2.5c-0.6-1-1.1-2.1-1.3-3.3c-0.2-1.2-0.3-2.3-0.3-3.4c0-0.3,0-0.5,0.1-0.5
		c0.1-0.1,0.2-0.1,0.3-0.1h4.9c0.4,0,0.6,0.2,0.6,0.7c0,0.3,0,0.7,0,1.3c0,0.5,0.1,1.1,0.3,1.6c0.2,0.5,0.5,1,0.9,1.4
		c0.4,0.4,1,0.6,1.9,0.6c0.7,0,1.2-0.1,1.6-0.4c0.4-0.3,0.7-0.6,0.8-1.1c0.2-0.4,0.3-1,0.3-1.6c0-0.6,0.1-1.3,0.1-2V66.1H124
		c-0.4,0-0.7-0.1-0.8-0.2c-0.1-0.1-0.2-0.4-0.2-0.9v-2.7c0-0.5,0.1-0.8,0.2-0.9c0.1-0.1,0.4-0.2,0.8-0.2h12.5c0.4,0,0.7,0.1,0.8,0.2
		c0.1,0.1,0.2,0.4,0.2,0.9V85z"/>
	<path class="st1" d="M163.5,94.5c0,0.5-0.1,0.8-0.2,0.9c-0.1,0.1-0.4,0.2-0.8,0.2h-16.4c-0.4,0-0.7-0.1-0.8-0.2
		c-0.1-0.1-0.2-0.4-0.2-0.9V62.4c0-0.5,0.1-0.8,0.2-0.9c0.1-0.1,0.4-0.2,0.8-0.2h16.4c0.5,0,0.8,0,1,0.1c0.2,0.1,0.2,0.2,0.2,0.4
		c0,0.1,0,0.2,0,0.3c0,0.1-0.1,0.2-0.1,0.4l-0.9,3.3c-0.1,0.4-0.3,0.6-0.5,0.7c-0.2,0.1-0.4,0.1-0.6,0.1h-9.7V75h8.5
		c0.5,0,0.8,0.1,0.9,0.2c0.1,0.1,0.2,0.4,0.2,0.9v3.3c0,0.5-0.1,0.8-0.2,0.9c-0.1,0.1-0.4,0.2-0.8,0.2h-8.5v9.8h10.7
		c0.5,0,0.8,0.1,0.9,0.2c0.1,0.1,0.2,0.4,0.2,0.9V94.5z"/>
	<path class="st1" d="M192.6,94.5c0,0.5-0.1,0.8-0.2,0.9c-0.1,0.1-0.4,0.2-0.9,0.2h-3.3c-0.4,0-0.6,0-0.7-0.1
		c-0.1-0.1-0.3-0.3-0.4-0.6l-9.1-17c-0.8-1.4-1.4-2.6-1.8-3.6c-0.4-1-0.8-2.1-1-3.2H175c0,0.3,0,1,0.1,2.1c0.1,1.1,0.1,2.2,0.1,3.4
		v18c0,0.5-0.1,0.8-0.2,0.9c-0.1,0.1-0.4,0.2-0.8,0.2h-3.6c-0.4,0-0.7-0.1-0.8-0.2c-0.1-0.1-0.2-0.4-0.2-0.9V62.4
		c0-0.5,0.1-0.8,0.2-0.9c0.1-0.1,0.4-0.2,0.8-0.2h4.1c0.4,0,0.6,0,0.7,0.1c0.1,0.1,0.3,0.3,0.4,0.5l8.2,15.5
		c0.7,1.3,1.3,2.6,1.8,3.8c0.5,1.2,0.9,2.4,1.2,3.4h0.1c0-0.4,0-0.9,0-1.5c0-0.6,0-1.2-0.1-1.8c0-0.6,0-1.2,0-1.8c0-0.6,0-1,0-1.4
		V62.4c0-0.5,0.1-0.8,0.2-0.9c0.1-0.1,0.4-0.2,0.8-0.2h3.6c0.4,0,0.7,0.1,0.8,0.2c0.1,0.1,0.2,0.4,0.2,0.9V94.5z"/>
	<path class="st1" d="M204.9,94.5c-0.1,0.5-0.2,0.8-0.3,0.9c-0.1,0.1-0.4,0.2-0.7,0.2h-5c-0.6,0-1-0.1-1-0.4c0-0.1,0-0.3,0.1-0.4
		c0.1-0.2,0.1-0.3,0.1-0.4l9.8-32.1c0.1-0.3,0.2-0.5,0.3-0.6c0.1-0.1,0.4-0.1,0.8-0.1h5.2c0.4,0,0.6,0.1,0.7,0.2
		c0.1,0.1,0.2,0.3,0.3,0.6l9.8,32.2c0,0.1,0.1,0.2,0.1,0.4c0.1,0.2,0.1,0.3,0.1,0.4c0,0.2-0.1,0.3-0.3,0.3c-0.2,0-0.4,0.1-0.7,0.1
		h-5.6c-0.3,0-0.4-0.1-0.5-0.2c-0.1-0.1-0.2-0.4-0.3-0.9l-2.2-8.1H207L204.9,94.5z M212.3,73.3c-0.1-0.5-0.2-1-0.3-1.6
		c-0.1-0.6-0.2-1.2-0.3-1.8c-0.1-0.6-0.2-1.2-0.2-1.8c-0.1-0.6-0.2-1.2-0.2-1.7h-0.1c-0.1,1.1-0.2,2.2-0.4,3.5
		c-0.2,1.3-0.4,2.4-0.7,3.4l-2.2,8.6h6.6L212.3,73.3z"/>
</g>
<g>
	<defs>
		<path id="SVGID_1_" d="M68,28.4c-1,0-2,0.4-2.7,1.2L29.6,65.2c-1.5,1.5-1.5,4.1,0,5.6l35.6,35.6c1.5,1.5,4.1,1.5,5.6,0l35.6-35.6
			c1.5-1.5,1.5-4.1,0-5.6L70.8,29.5C70.1,28.8,69.1,28.4,68,28.4L68,28.4z"/>
	</defs>
	<clipPath id="SVGID_00000106839274307863104580000011099528089850861729_">
		<use xlink:href="#SVGID_1_"  style="overflow:visible;"/>
	</clipPath>
	
		<linearGradient id="SVGID_00000176033227018369657440000005606809831790982572_" gradientUnits="userSpaceOnUse" x1="3.1574" y1="283.1664" x2="4.1423" y2="283.1664" gradientTransform="matrix(0 -80.4063 -80.4063 0 22836.3789 361.4399)">
		<stop  offset="0" style="stop-color:#133370"/>
		<stop  offset="7.727270e-04" style="stop-color:#133370"/>
		<stop  offset="8.613682e-02" style="stop-color:#0C3672"/>
		<stop  offset="0.2088" style="stop-color:#004079"/>
		<stop  offset="0.354" style="stop-color:#005084"/>
		<stop  offset="0.5165" style="stop-color:#006791"/>
		<stop  offset="0.691" style="stop-color:#00839E"/>
		<stop  offset="0.8291" style="stop-color:#009BA6"/>
		<stop  offset="1" style="stop-color:#009BA6"/>
	</linearGradient>
	
		<rect x="28" y="28.4" style="clip-path:url(#SVGID_00000106839274307863104580000011099528089850861729_);fill:url(#SVGID_00000176033227018369657440000005606809831790982572_);" width="80" height="79.6"/>
	<path style="clip-path:url(#SVGID_00000106839274307863104580000011099528089850861729_);fill:#FFFFFF;" d="M83.4,55
		c-0.1,0.1-0.3,0.1-0.4,0l-2.6-2.6c-0.1-0.1-0.1-0.3,0-0.4l2.6-2.6c0.1-0.1,0.3-0.1,0.4,0l2.6,2.6c0.1,0.1,0.1,0.3,0,0.4L83.4,55z"
		/>
	<path style="clip-path:url(#SVGID_00000106839274307863104580000011099528089850861729_);fill:#FFFFFF;" d="M48,76
		c-0.3,0.3-0.7,0.3-1,0l-6.3-6.3c-0.3-0.3-0.3-0.7,0-1l6.3-6.3c0.3-0.3,0.7-0.3,1,0l6.3,6.3c0.3,0.3,0.3,0.7,0,1L48,76z"/>
	<path style="clip-path:url(#SVGID_00000106839274307863104580000011099528089850861729_);fill:#FFFFFF;" d="M81.7,80.6
		c-0.2,0.2-0.5,0.2-0.7,0l-4.4-4.4c-0.2-0.2-0.2-0.5,0-0.7l4.4-4.4c0.2-0.2,0.5-0.2,0.7,0l4.4,4.4c0.2,0.2,0.2,0.5,0,0.7L81.7,80.6z
		"/>
	
		<line style="clip-path:url(#SVGID_00000106839274307863104580000011099528089850861729_);fill:none;stroke:#FFFFFF;stroke-width:0.605;" x1="47.3" y1="69.2" x2="76.9" y2="100.3"/>
	
		<line style="clip-path:url(#SVGID_00000106839274307863104580000011099528089850861729_);fill:none;stroke:#FFFFFF;stroke-width:0.605;" x1="81.3" y1="76.5" x2="83.1" y2="52.1"/>
	
		<line style="clip-path:url(#SVGID_00000106839274307863104580000011099528089850861729_);fill:none;stroke:#FFFFFF;stroke-width:0.605;" x1="83.5" y1="52.1" x2="31.2" y2="76.7"/>
	
		<line style="clip-path:url(#SVGID_00000106839274307863104580000011099528089850861729_);fill:none;stroke:#FFFFFF;stroke-width:0.605;" x1="47.1" y1="69" x2="45.8" y2="45.4"/>
	
		<line style="clip-path:url(#SVGID_00000106839274307863104580000011099528089850861729_);fill:none;stroke:#FFFFFF;stroke-width:0.605;" x1="44.5" y1="69.6" x2="23.7" y2="68"/>
	
		<line style="clip-path:url(#SVGID_00000106839274307863104580000011099528089850861729_);fill:none;stroke:#FFFFFF;stroke-width:0.605;" x1="47.3" y1="68.8" x2="52.7" y2="101.1"/>
	
		<line style="clip-path:url(#SVGID_00000106839274307863104580000011099528089850861729_);fill:none;stroke:#FFFFFF;stroke-width:0.605;" x1="47.5" y1="68.7" x2="99.6" y2="80.8"/>
	
		<line style="clip-path:url(#SVGID_00000106839274307863104580000011099528089850861729_);fill:none;stroke:#FFFFFF;stroke-width:0.605;" x1="81.3" y1="76.3" x2="65.4" y2="111.8"/>
	<path style="clip-path:url(#SVGID_00000106839274307863104580000011099528089850861729_);fill:#F18500;" d="M73.4,86.3"/>
	
		<path style="clip-path:url(#SVGID_00000106839274307863104580000011099528089850861729_);fill:none;stroke:#FFFFFF;stroke-width:0.605;" d="
		M73.4,86.3"/>
	
		<line style="clip-path:url(#SVGID_00000106839274307863104580000011099528089850861729_);fill:none;stroke:#FFFFFF;stroke-width:0.605;" x1="81.1" y1="76.5" x2="119.1" y2="72.4"/>
	
		<line style="clip-path:url(#SVGID_00000106839274307863104580000011099528089850861729_);fill:none;stroke:#FFFFFF;stroke-width:0.605;" x1="83.3" y1="51.9" x2="106.7" y2="76.3"/>
	
		<line style="clip-path:url(#SVGID_00000106839274307863104580000011099528089850861729_);fill:none;stroke:#FFFFFF;stroke-width:0.605;" x1="83.5" y1="52.1" x2="89.8" y2="45.5"/>
	
		<line style="clip-path:url(#SVGID_00000106839274307863104580000011099528089850861729_);fill:none;stroke:#FFFFFF;stroke-width:0.605;" x1="83.1" y1="51.9" x2="38.4" y2="54.7"/>
	
		<line style="clip-path:url(#SVGID_00000106839274307863104580000011099528089850861729_);fill:none;stroke:#FFFFFF;stroke-width:0.605;" x1="47.1" y1="68.5" x2="71" y2="24.8"/>
	
		<line style="clip-path:url(#SVGID_00000106839274307863104580000011099528089850861729_);fill:none;stroke:#FFFFFF;stroke-width:0.605;" x1="81.1" y1="74.7" x2="62.1" y2="24.7"/>
</g>
</svg>
