<?xml version="1.0" encoding="UTF-8"?>
<!-- Generator: Adobe Illustrator 25.4.1, SVG Export Plug-In . SVG Version: 6.00 Build 0)  -->
<svg version="1.1" id="Ebene_1" xmlns="http://www.w3.org/2000/svg" xmlns:xlink="http://www.w3.org/1999/xlink" x="0px" y="0px" viewBox="0 0 199.4 17.3" style="enable-background:new 0 0 199.4 17.3;" xml:space="preserve">
<style type="text/css">
	.st0{fill:#FFFFFF;}
</style>
<g>
	<path class="st0" d="M16.5,15.7c0,0.6-0.5,1.1-1.1,1.1H1.1c-0.6,0-1.1-0.5-1.1-1.1V1.4c0-0.6,0.5-1.1,1.1-1.1h14.3   c0.6,0,1.1,0.5,1.1,1.1V15.7z"/>
	<path class="st0" d="M197.7,13.8c-0.9,0-1.7,0.8-1.7,1.7c0,0.9,0.7,1.7,1.7,1.7c0.9,0,1.7-0.8,1.7-1.7   C199.4,14.6,198.6,13.8,197.7,13.8"/>
	<path class="st0" d="M25.8,12.2c0,1.8-0.3,2.4-1.3,2.4c-1,0-1.5-0.7-1.5-2.1v-0.1c0-0.2-0.1-0.3-0.3-0.3h-2.3   c-0.2,0-0.3,0.1-0.3,0.6c0,0.7,0.1,1.2,0.3,1.9c0.6,2,1.9,2.8,4.1,2.8c1.5,0,2.7-0.4,3.5-1.4c0.8-0.9,1.1-2,1.1-4.1v-11   c0-0.4-0.1-0.5-0.5-0.5h-5.9c-0.4,0-0.4,0.1-0.6,0.5l-0.5,1.7c-0.1,0.4,0,0.5,0.5,0.5h3.7V12.2z"/>
	<path class="st0" d="M40.3,2.9c0.3,0,0.4-0.1,0.5-0.4l0.5-1.7c0.1-0.1,0.1-0.2,0.1-0.3c0-0.2-0.1-0.3-0.5-0.3h-8.1   c-0.4,0-0.5,0.1-0.5,0.5v15.6c0,0.4,0,0.5,0.5,0.5h7.9c0.4,0,0.5,0,0.5-0.5v-1.6c0-0.4,0-0.5-0.5-0.5h-5V9.5h4   c0.4,0,0.5-0.1,0.5-0.5V7.4c0-0.4-0.1-0.5-0.5-0.5h-4v-4H40.3z"/>
	<path class="st0" d="M50.5,7.8l-3.8-7.1c-0.2-0.4-0.2-0.4-0.7-0.4h-1.9c-0.4,0-0.5,0.1-0.5,0.5v15.6c0,0.4,0,0.5,0.5,0.5H46   c0.4,0,0.5,0,0.5-0.5V8.1V7.7c0-0.6,0-0.9,0-1.7l0-0.8c0.4,1.2,0.7,1.8,1.5,3.4l4.2,7.8c0.2,0.4,0.3,0.5,0.7,0.5h1.6   c0.4,0,0.5,0,0.5-0.5V0.8c0-0.4,0-0.5-0.5-0.5h-1.8c-0.4,0-0.5,0.1-0.5,0.5v7.7v2.2l0,0.8C51.6,10.1,51.1,8.8,50.5,7.8"/>
	<path class="st0" d="M66.3,16.5c0.1,0.4,0.1,0.4,0.5,0.4h2.7c0.3,0,0.5-0.1,0.5-0.3c0-0.1,0-0.1,0-0.3L65.1,0.7   C65,0.3,65,0.3,64.6,0.3h-2.5c-0.2,0-0.3,0-0.4,0.1c0,0-0.1,0.1-0.1,0.1c0,0,0,0.1-0.1,0.2l-4.8,15.6c0,0,0,0.1,0,0.1   c0,0.1,0,0.1,0,0.2c0,0.2,0.1,0.3,0.5,0.3h2.4c0.4,0,0.4,0,0.5-0.4l1-3.9h4.1L66.3,16.5z M62.5,6.1c0.2-1,0.4-1.8,0.6-3.3   c0.3,1.8,0.4,2.2,0.6,3.3l0.9,4.1h-3.1L62.5,6.1z"/>
	<path class="st0" d="M83.5,15.2h6.1c0.3,0,0.3,0,0.3,0.2c0,0,0,0.1-0.1,0.2l-0.4,1.1c-0.1,0.2-0.2,0.2-0.4,0.2h-7.3   c-0.3,0-0.3,0-0.3-0.3V0.7c0-0.3,0.1-0.3,0.3-0.3h1.3c0.3,0,0.3,0,0.3,0.3V15.2z"/>
	<path class="st0" d="M95.6,1.9v13.4h2.1c0.3,0,0.3,0,0.3,0.3v0.9c0,0.3,0,0.3-0.3,0.3h-6.3c-0.3,0-0.3,0-0.3-0.3v-0.9   c0-0.3,0-0.3,0.3-0.3h2.1V1.9h-2.1c-0.3,0-0.3,0-0.3-0.3V0.7c0-0.3,0-0.3,0.3-0.3h6.3c0.3,0,0.3,0,0.3,0.3v0.9c0,0.3,0,0.3-0.3,0.3   H95.6z"/>
	<path class="st0" d="M109.8,2l-0.7,0.9C109,3,108.9,3,108.9,3c0,0-0.1,0-0.2-0.1l-0.6-0.4c-0.8-0.6-1.4-0.9-2.2-0.9   c-2.2,0-3.2,2-3.2,6.6c0,4.9,1.2,7.4,3.4,7.4c0.8,0,1.8-0.5,2.7-1.3c0.1-0.1,0.2-0.1,0.3-0.1c0,0,0.1,0,0.2,0.1l0.6,0.8   c0,0.1,0.1,0.1,0.1,0.2c0,0.1-0.1,0.3-0.3,0.5c-1,0.9-2.2,1.4-3.6,1.4c-3.6,0-5.5-3.1-5.5-8.8c0-5.5,1.8-8.4,5.3-8.4   c1.3,0,2.8,0.6,3.8,1.5c0.1,0.1,0.2,0.2,0.2,0.3C109.8,1.9,109.8,2,109.8,2"/>
	<path class="st0" d="M115.2,7.5h6.2V0.7c0-0.3,0-0.3,0.3-0.3h1.3c0.3,0,0.3,0,0.3,0.3v15.9c0,0.3,0,0.3-0.3,0.3h-1.3   c-0.3,0-0.3,0-0.3-0.3V9.1h-6.2v7.5c0,0.3,0,0.3-0.3,0.3h-1.3c-0.3,0-0.3,0-0.3-0.3V0.7c0-0.3,0.1-0.3,0.3-0.3h1.3   c0.3,0,0.3,0,0.3,0.3V7.5z"/>
	<path class="st0" d="M132.3,2v14.6c0,0.3,0,0.3-0.3,0.3h-1.3c-0.3,0-0.3,0-0.3-0.3V2h-3.5c-0.3,0-0.3,0-0.3-0.3v-1   c0-0.3,0-0.3,0.3-0.3h9.4c0.2,0,0.3,0,0.3,0.2c0,0,0,0.1,0,0.2l-0.3,1c-0.1,0.2-0.2,0.2-0.3,0.2H132.3z"/>
	<path class="st0" d="M137.9,15.6l0.4-1.2c0-0.1,0.1-0.1,0.2-0.1c0,0,0.1,0,0.2,0c0.1,0.1,0.1,0.1,0.2,0.1c1.2,0.6,2.5,1,3.5,1   c1.8,0,2.9-1.1,2.9-2.7c0-1.5-0.6-2.2-3-3.6c-2.1-1.2-2.5-1.5-3.1-2.1c-0.6-0.7-1-1.7-1-2.7c0-2.6,2-4.4,4.8-4.4   c1.3,0,2.8,0.4,3.8,1c0.1,0.1,0.2,0.2,0.2,0.3v0.1c0,0,0,0.1,0,0.1l-0.4,1.1c0,0.1-0.1,0.1-0.2,0.1c-0.1,0-0.1,0-0.2,0l-0.8-0.4   c-0.7-0.3-1.6-0.5-2.4-0.5c-1.6,0-2.6,0.9-2.6,2.4c0,1.2,0.5,1.8,2.3,2.9l1.5,0.9c1.5,0.9,1.9,1.2,2.4,1.9c0.5,0.7,0.8,1.6,0.8,2.6   c0,2.8-2,4.7-5.1,4.7c-1.4,0-3-0.4-4.2-1.1c-0.2-0.1-0.3-0.2-0.3-0.4C137.9,15.7,137.9,15.7,137.9,15.6"/>
	<path class="st0" d="M155.6,2v14.6c0,0.3,0,0.3-0.3,0.3H154c-0.3,0-0.3,0-0.3-0.3V2h-3.5c-0.3,0-0.3,0-0.3-0.3v-1   c0-0.3,0-0.3,0.3-0.3h9.4c0.2,0,0.3,0,0.3,0.2c0,0,0,0.1-0.1,0.2l-0.3,1c0,0.2-0.2,0.2-0.3,0.2H155.6z"/>
	<path class="st0" d="M168.1,11.9h-4.9l-1.4,4.7c-0.1,0.2-0.2,0.3-0.3,0.3H160c-0.2,0-0.3,0-0.3-0.2c0,0,0-0.1,0-0.1l0-0.1l4.9-15.9   c0.1-0.2,0.1-0.3,0.3-0.3h1.4c0.3,0,0.3,0,0.3,0.3l4.9,15.9c0,0.1,0,0.2,0,0.2c0,0.1-0.1,0.2-0.3,0.2h-1.5c-0.2,0-0.3-0.1-0.4-0.3   L168.1,11.9z M163.7,10.3h4l-1.4-5.3L166,4.2l-0.1-0.5l-0.1-0.5l-0.1-0.6c-0.1,0.8-0.3,1.4-0.5,2.3L163.7,10.3z"/>
	<path class="st0" d="M175.1,16.6V0.7c0-0.3,0.1-0.3,0.3-0.3h2.5c2.5,0,3.9,0.4,4.9,1.5c1.4,1.4,2.1,3.6,2.1,6.5   c0,5.8-2.2,8.6-6.8,8.6h-2.8C175.2,16.9,175.1,16.8,175.1,16.6 M177.1,15.2h1.2c2.2,0,3.2-0.6,3.8-2.2c0.5-1.2,0.7-2.6,0.7-4.6   c0-3.6-0.8-5.5-2.6-6.1c-0.6-0.2-1.2-0.2-2.2-0.2h-1V15.2z"/>
	<path class="st0" d="M192.5,2v14.6c0,0.3,0,0.3-0.3,0.3h-1.3c-0.3,0-0.3,0-0.3-0.3V2h-3.5c-0.3,0-0.3,0-0.3-0.3v-1   c0-0.3,0-0.3,0.3-0.3h9.4c0.2,0,0.3,0,0.3,0.2c0,0,0,0.1,0,0.2l-0.3,1C196.3,1.9,196.1,2,196,2H192.5z"/>
</g>
</svg>