<?xml version="1.0" encoding="UTF-8"?>
<!-- Generator: Adobe Illustrator 25.4.1, SVG Export Plug-In . SVG Version: 6.00 Build 0)  -->
<svg version="1.1" id="Ebene_1" xmlns="http://www.w3.org/2000/svg" xmlns:xlink="http://www.w3.org/1999/xlink" x="0px" y="0px" viewBox="0 0 282.2 136" style="enable-background:new 0 0 282.2 136;" xml:space="preserve">
<style type="text/css">
	.st0{fill:#133370;}
	.st1{fill:#EA560D;}
	
		.st2{clip-path:url(#SVGID_00000109746090975430258840000001600894991716533172_);fill:url(#SVGID_00000179632909006986803280000005136717958866455689_);}
	.st3{clip-path:url(#SVGID_00000044171832073240082260000009187351560564731810_);fill:#FFFFFF;}
	.st4{clip-path:url(#SVGID_00000096035107606645518780000011427687862834294166_);fill:#FFFFFF;}
	.st5{clip-path:url(#SVGID_00000091017624281275204520000000521735612780808349_);fill:#FFFFFF;}
	.st6{clip-path:url(#SVGID_00000083064950131824948080000005145842913580821890_);fill:none;stroke:#FFFFFF;stroke-width:1.017;}
	.st7{clip-path:url(#SVGID_00000124872429923066390490000016984689900056857754_);fill:none;stroke:#FFFFFF;stroke-width:1.017;}
	.st8{clip-path:url(#SVGID_00000163072561344486630720000011500281226347151031_);fill:none;stroke:#FFFFFF;stroke-width:1.017;}
	.st9{clip-path:url(#SVGID_00000114036131323358886910000015567380838656905113_);fill:none;stroke:#FFFFFF;stroke-width:1.017;}
	.st10{clip-path:url(#SVGID_00000169536175365850290210000002521926391996090530_);fill:none;stroke:#FFFFFF;stroke-width:1.017;}
	.st11{clip-path:url(#SVGID_00000091715130151574788640000009068654147849707435_);fill:none;stroke:#FFFFFF;stroke-width:1.017;}
	.st12{clip-path:url(#SVGID_00000168086722793838582330000011986884398747119751_);fill:none;stroke:#FFFFFF;stroke-width:1.017;}
	.st13{clip-path:url(#SVGID_00000173863707690590221940000002587003394233184394_);fill:none;stroke:#FFFFFF;stroke-width:1.017;}
	.st14{clip-path:url(#SVGID_00000013905284957749700250000015402158412729346478_);fill:#F18500;}
	.st15{clip-path:url(#SVGID_00000071561443841264718620000009588562409135778966_);fill:none;stroke:#FFFFFF;stroke-width:1.017;}
	.st16{clip-path:url(#SVGID_00000168804976711424906950000016270386949282821309_);fill:none;stroke:#FFFFFF;stroke-width:1.017;}
	.st17{clip-path:url(#SVGID_00000000205375289684421300000012365837690367260555_);fill:none;stroke:#FFFFFF;stroke-width:1.017;}
	.st18{clip-path:url(#SVGID_00000011013630546777990490000016506748695463500673_);fill:none;stroke:#FFFFFF;stroke-width:1.017;}
	.st19{clip-path:url(#SVGID_00000065052936434028957220000011015297478717186717_);fill:none;stroke:#FFFFFF;stroke-width:1.017;}
	.st20{clip-path:url(#SVGID_00000083796377118161170550000009335997005959494553_);fill:none;stroke:#FFFFFF;stroke-width:1.017;}
	.st21{clip-path:url(#SVGID_00000035530681728390209630000017157397202504988066_);fill:none;stroke:#FFFFFF;stroke-width:1.017;}
</style>
<g>
	<path class="st0" d="M138,96c0,1.6-0.1,3.1-0.4,4.5c-0.3,1.4-0.7,2.6-1.5,3.7c-0.7,1.1-1.7,1.9-3,2.5s-2.9,0.9-5,0.9   c-1.9,0-3.5-0.3-4.7-1s-2.1-1.6-2.8-2.6c-0.7-1-1.1-2.2-1.3-3.4c-0.2-1.2-0.3-2.4-0.3-3.5c0-0.3,0-0.5,0.1-0.6s0.2-0.1,0.4-0.1h5.1   c0.4,0,0.6,0.2,0.6,0.7c0,0.3,0,0.7,0,1.3c0,0.5,0.1,1.1,0.3,1.6c0.2,0.5,0.5,1,0.9,1.4s1.1,0.6,1.9,0.6c0.7,0,1.3-0.1,1.7-0.4   s0.7-0.6,0.8-1.1c0.2-0.5,0.3-1,0.3-1.6s0.1-1.3,0.1-2V76.7h-7c-0.4,0-0.7-0.1-0.9-0.2c-0.1-0.1-0.2-0.4-0.2-0.9v-2.8   c0-0.5,0.1-0.8,0.2-0.9s0.4-0.2,0.9-0.2H137c0.4,0,0.7,0.1,0.9,0.2c0.1,0.1,0.2,0.4,0.2,0.9V96H138z"/>
	<path class="st0" d="M164.6,105.7c0,0.5-0.1,0.8-0.2,0.9c-0.1,0.1-0.4,0.2-0.8,0.2h-16.8c-0.4,0-0.7-0.1-0.9-0.2   c-0.1-0.1-0.2-0.4-0.2-0.9V72.9c0-0.5,0.1-0.8,0.2-0.9c0.1-0.1,0.4-0.2,0.9-0.2h16.7c0.5,0,0.8,0,1,0.1s0.3,0.2,0.3,0.5   c0,0.1,0,0.2,0,0.3c0,0.1-0.1,0.2-0.1,0.4l-1,3.4c-0.1,0.4-0.3,0.6-0.5,0.7s-0.5,0.1-0.7,0.1h-9.9v8.4h8.7c0.5,0,0.8,0.1,0.9,0.2   c0.1,0.1,0.2,0.4,0.2,0.9v3.4c0,0.5-0.1,0.8-0.2,0.9c-0.1,0.1-0.4,0.2-0.9,0.2h-8.7v10h10.9c0.5,0,0.8,0.1,0.9,0.2   c0.1,0.1,0.2,0.4,0.2,0.9L164.6,105.7L164.6,105.7z"/>
	<path class="st0" d="M194.3,105.7c0,0.5-0.1,0.8-0.2,0.9c-0.1,0.1-0.4,0.2-0.9,0.2h-3.4c-0.4,0-0.6,0-0.7-0.1s-0.3-0.3-0.4-0.6   l-9.3-17.4c-0.8-1.4-1.4-2.7-1.8-3.7c-0.4-1-0.8-2.1-1.1-3.3h-0.1c0,0.3,0,1.1,0.1,2.2s0.1,2.3,0.1,3.4v18.4c0,0.5-0.1,0.8-0.2,0.9   c-0.1,0.1-0.4,0.2-0.9,0.2h-3.7c-0.4,0-0.7-0.1-0.9-0.2c-0.1-0.1-0.2-0.4-0.2-0.9V72.9c0-0.5,0.1-0.8,0.2-0.9   c0.1-0.1,0.4-0.2,0.9-0.2h4.2c0.4,0,0.6,0,0.7,0.1c0.1,0.1,0.3,0.3,0.4,0.5l8.4,15.8c0.7,1.4,1.3,2.7,1.8,3.9   c0.5,1.3,0.9,2.4,1.2,3.5h0.1c0-0.4,0-0.9,0-1.5s0-1.2-0.1-1.9c0-0.6,0-1.2,0-1.8c0-0.6,0-1.1,0-1.4V72.9c0-0.5,0.1-0.8,0.2-0.9   c0.1-0.1,0.4-0.2,0.9-0.2h3.7c0.4,0,0.7,0.1,0.9,0.2c0.1,0.1,0.2,0.4,0.2,0.9L194.3,105.7L194.3,105.7z"/>
	<path class="st0" d="M206.9,105.7c-0.1,0.5-0.2,0.8-0.3,0.9s-0.4,0.2-0.7,0.2h-5.2c-0.6,0-1-0.2-1-0.5c0-0.1,0-0.3,0.1-0.5   s0.1-0.3,0.1-0.4L210,72.5c0.1-0.3,0.2-0.6,0.3-0.6s0.4-0.1,0.8-0.1h5.3c0.4,0,0.6,0.1,0.7,0.2c0.1,0.1,0.2,0.3,0.3,0.6l10,32.9   c0,0.1,0.1,0.2,0.1,0.4c0.1,0.2,0.1,0.3,0.1,0.4c0,0.2-0.1,0.3-0.3,0.3c-0.2,0.1-0.4,0.1-0.7,0.1h-5.7c-0.3,0-0.5-0.1-0.5-0.2   c-0.1-0.1-0.2-0.4-0.3-0.9l-2.2-8.3h-8.8L206.9,105.7z M214.4,84.1c-0.1-0.5-0.2-1.1-0.3-1.7s-0.2-1.2-0.3-1.9s-0.2-1.3-0.3-1.9   s-0.2-1.2-0.2-1.7h-0.1c-0.1,1.1-0.3,2.3-0.5,3.6c-0.2,1.3-0.4,2.5-0.7,3.5l-2.2,8.8h6.7L214.4,84.1z"/>
</g>
<g>
	<path class="st1" d="M122.1,34.9c0.2-0.1,0.4-0.2,0.7-0.4c0.3-0.2,0.8-0.3,1.5-0.3s1.3,0.1,1.8,0.4s1,0.6,1.3,1   c0.4,0.4,0.6,0.9,0.8,1.5s0.3,1.2,0.3,1.8c0,0.8-0.1,1.5-0.4,2.2c-0.3,0.7-0.6,1.3-1.1,1.8s-1.1,0.9-1.8,1.2   c-0.7,0.3-1.5,0.4-2.4,0.4c-0.4,0-0.8,0-1.2-0.1c-0.4-0.1-0.8-0.1-1.2-0.2c-0.4-0.1-0.7-0.2-0.9-0.3c-0.2-0.1-0.4-0.3-0.4-0.4v-0.1   v-0.1l0.3-1.7c0,0,0-0.1,0.1-0.1l0.1-0.1c0,0,0.2,0,0.4,0.1c0.2,0.1,0.4,0.1,0.7,0.2c0.3,0.1,0.6,0.2,0.9,0.2   c0.3,0.1,0.7,0.1,1,0.1c1.1,0,1.9-0.3,2.4-0.9c0.6-0.6,0.8-1.3,0.8-2.2c0-0.7-0.2-1.3-0.6-1.7s-0.9-0.6-1.7-0.6   c-0.4,0-0.8,0.1-1.1,0.2c-0.3,0.1-0.5,0.3-0.7,0.4c-0.2,0.2-0.3,0.3-0.4,0.4c-0.1,0.1-0.2,0.2-0.3,0.2h-0.1h-0.1l-1.3-0.4   c-0.1,0-0.2-0.1-0.3-0.1c-0.1,0-0.1-0.1-0.1-0.2c0-0.1,0-0.2,0-0.2l0.7-7.5c0-0.2,0.1-0.3,0.1-0.4c0.1,0,0.2-0.1,0.3-0.1h6.5   c0.2,0,0.3,0,0.4,0.1s0.1,0.2,0.1,0.4v1.5c0,0.2,0,0.3-0.1,0.4s-0.2,0.1-0.4,0.1h-4.5L122.1,34.9z"/>
	<path class="st1" d="M141.5,42.8c0,0.2-0.1,0.5-0.4,0.7c-0.3,0.2-0.6,0.4-1.1,0.5c-0.4,0.2-0.9,0.3-1.4,0.4c-0.5,0.1-1,0.1-1.5,0.1   c-1.9,0-3.4-0.6-4.4-1.9c-1-1.3-1.5-3.3-1.5-5.9c0-2.6,0.5-4.6,1.5-6c1-1.4,2.5-2,4.5-2c0.5,0,1,0.1,1.5,0.2s0.9,0.2,1.3,0.4   c0.4,0.1,0.7,0.3,0.9,0.5s0.4,0.3,0.4,0.4s0,0.2-0.1,0.3l-0.7,1.5c-0.1,0.1-0.2,0.2-0.2,0.2s-0.1-0.1-0.3-0.2   c-0.2-0.1-0.4-0.2-0.6-0.3c-0.3-0.1-0.6-0.2-0.9-0.3c-0.3-0.1-0.7-0.2-1.1-0.2c-0.6,0-1,0.1-1.4,0.4c-0.4,0.2-0.7,0.6-0.9,1.1   s-0.4,1.1-0.5,1.7c-0.1,0.7-0.1,1.4-0.1,2.3c0,0.9,0,1.6,0.1,2.3s0.2,1.3,0.5,1.8c0.2,0.5,0.5,0.9,0.9,1.1c0.4,0.3,0.9,0.4,1.5,0.4   c0.4,0,0.8,0,1-0.1c0.3-0.1,0.5-0.2,0.6-0.2v-3.2h-1.7c-0.2,0-0.3,0-0.4-0.1c-0.1-0.1-0.1-0.2-0.1-0.4v-1.5c0-0.2,0-0.3,0.1-0.4   c0.1-0.1,0.2-0.1,0.4-0.1h3.8c0.2,0,0.3,0,0.4,0.1c0.1,0.1,0.1,0.2,0.1,0.4v6H141.5z"/>
	<path class="st1" d="M157.5,43.9c0,0.2-0.1,0.3-0.1,0.3s-0.2,0.1-0.4,0.1h-2.5c-0.2,0-0.3,0-0.4-0.1c-0.1,0-0.1-0.1-0.1-0.3   l-3.9-14c0-0.1-0.1-0.2-0.1-0.2c0-0.1,0-0.2,0-0.2c0-0.1,0-0.1,0.1-0.2c0.1,0,0.2-0.1,0.3-0.1l2.2-0.4h0.1c0,0,0.1,0,0.2,0   c0.1,0,0.1,0,0.2,0.1c0.1,0,0.1,0.2,0.2,0.4l1.9,8.9c0,0.2,0.1,0.4,0.1,0.7s0.1,0.6,0.1,0.9c0.1,0.3,0.1,0.6,0.2,0.9   c0.1,0.3,0.1,0.6,0.1,0.8l0,0c0-0.2,0.1-0.5,0.1-0.8c0.1-0.3,0.1-0.6,0.2-0.9c0.1-0.3,0.1-0.6,0.2-0.9c0.1-0.3,0.1-0.5,0.2-0.7   l2.1-8.9c0.1-0.2,0.1-0.3,0.2-0.4c0.1,0,0.1-0.1,0.2-0.1c0.1,0,0.2,0,0.2,0h0.1l1.9,0.2c0.1,0,0.2,0.1,0.3,0.1s0.1,0.1,0.1,0.2   s0,0.2,0,0.2c0,0.1,0,0.2-0.1,0.2L157.5,43.9z"/>
	<path class="st1" d="M172,43.7c0,0.2,0,0.3-0.1,0.4s-0.2,0.1-0.4,0.1h-7.2c-0.2,0-0.3,0-0.4-0.1c-0.1-0.1-0.1-0.2-0.1-0.4V29.5   c0-0.2,0-0.3,0.1-0.4s0.2-0.1,0.4-0.1h7.2c0.2,0,0.4,0,0.4,0s0.1,0.1,0.1,0.2s0,0.1,0,0.1s0,0.1-0.1,0.2l-0.4,1.5   c0,0.2-0.1,0.3-0.2,0.3c-0.1,0-0.2,0.1-0.3,0.1h-4.3V35h3.7c0.2,0,0.3,0,0.4,0.1c0.1,0.1,0.1,0.2,0.1,0.4V37c0,0.2,0,0.3-0.1,0.4   c-0.1,0.1-0.2,0.1-0.4,0.1h-3.7v4.3h4.7c0.2,0,0.3,0,0.4,0.1c0.1,0.1,0.1,0.2,0.1,0.4v1.4H172z"/>
	<path class="st1" d="M177.7,43.7c0,0.2,0,0.3-0.1,0.4c-0.1,0.1-0.2,0.1-0.4,0.1h-2c-0.2,0-0.3,0-0.4-0.1c-0.1-0.1-0.1-0.2-0.1-0.4   V29.5c0-0.2,0-0.3,0.1-0.4s0.2-0.1,0.4-0.1h3.6c0.3,0,0.6,0,1,0s0.7,0.1,1.1,0.2c0.4,0.1,0.8,0.2,1.1,0.4c0.4,0.2,0.7,0.4,1,0.7   s0.5,0.7,0.7,1.2c0.2,0.5,0.3,1.1,0.3,1.8s-0.1,1.3-0.3,1.8s-0.4,0.9-0.7,1.2s-0.5,0.5-0.8,0.7s-0.5,0.3-0.7,0.4l3.3,5.9   c0,0.1,0.1,0.1,0.1,0.2c0,0.1,0.1,0.1,0.1,0.2c0,0.1,0,0.1-0.1,0.2c-0.1,0-0.2,0.1-0.3,0.1l-1.9,0.5c-0.1,0-0.2,0-0.3,0   s-0.3-0.2-0.5-0.7l-3-5.9h-1.1v5.8H177.7z M178.2,35.6c0.4,0,0.7,0,1-0.1c0.3,0,0.6-0.1,0.8-0.3s0.4-0.4,0.6-0.7   c0.1-0.3,0.2-0.7,0.2-1.2s-0.1-0.9-0.2-1.1c-0.1-0.3-0.3-0.5-0.6-0.6c-0.2-0.1-0.5-0.2-0.8-0.2s-0.6,0-0.8,0h-0.8v4.2H178.2z"/>
	<path class="st1" d="M190.3,43.7c0,0.2,0,0.3-0.1,0.4c-0.1,0.1-0.2,0.1-0.4,0.1h-2c-0.2,0-0.3,0-0.4-0.1c-0.1-0.1-0.1-0.2-0.1-0.4   V29.5c0-0.2,0-0.3,0.1-0.4s0.2-0.1,0.4-0.1h2c0.2,0,0.3,0,0.4,0.1c0.1,0.1,0.1,0.2,0.1,0.4v6.2l0,0l4.8-6.7c0-0.1,0.1-0.1,0.2-0.2   c0.1-0.1,0.1-0.1,0.2-0.1c0.1,0,0.1,0,0.2,0.1c0.1,0,0.1,0.1,0.2,0.1l1.5,0.7c0.1,0,0.1,0.1,0.2,0.1c0.1,0.1,0.1,0.1,0.1,0.1   c0,0.1,0,0.2-0.1,0.2l-0.1,0.1l-4.7,6.2l5.2,6.4l0.1,0.1c0,0,0.1,0.1,0.1,0.2c0,0,0,0.1-0.1,0.1c-0.1,0.1-0.1,0.1-0.2,0.1l-1.8,0.9   c-0.1,0-0.2,0.1-0.2,0.1c-0.1,0-0.1,0.1-0.2,0.1c-0.1,0-0.1,0-0.2-0.1c-0.1-0.1-0.1-0.1-0.2-0.2l-5.1-6.7l0,0v6.4H190.3z"/>
	<path class="st1" d="M208.1,43.7c0,0.2,0,0.3-0.1,0.4c-0.1,0.1-0.2,0.1-0.4,0.1h-7.2c-0.2,0-0.3,0-0.4-0.1   c-0.1-0.1-0.1-0.2-0.1-0.4V29.5c0-0.2,0-0.3,0.1-0.4s0.2-0.1,0.4-0.1h7.2c0.2,0,0.4,0,0.4,0s0.1,0.1,0.1,0.2s0,0.1,0,0.1   s0,0.1-0.1,0.2l-0.4,1.5c0,0.2-0.1,0.3-0.2,0.3c-0.1,0-0.2,0.1-0.3,0.1h-4.3V35h3.7c0.2,0,0.3,0,0.4,0.1c0.1,0.1,0.1,0.2,0.1,0.4   V37c0,0.2,0,0.3-0.1,0.4c-0.1,0.1-0.2,0.1-0.4,0.1h-3.7v4.3h4.7c0.2,0,0.3,0,0.4,0.1c0.1,0.1,0.1,0.2,0.1,0.4v1.4H208.1z"/>
	<path class="st1" d="M221.1,43.7c0,0.2,0,0.3-0.1,0.4c-0.1,0.1-0.2,0.1-0.4,0.1h-2c-0.2,0-0.3,0-0.4-0.1c-0.1-0.1-0.1-0.2-0.1-0.4   v-6.1h-4.2v6.1c0,0.2,0,0.3-0.1,0.4c-0.1,0.1-0.2,0.1-0.4,0.1h-2c-0.2,0-0.3,0-0.4-0.1c-0.1-0.1-0.1-0.2-0.1-0.4V29.5   c0-0.2,0-0.3,0.1-0.4s0.2-0.1,0.4-0.1h2c0.2,0,0.3,0,0.4,0.1c0.1,0.1,0.1,0.2,0.1,0.4v5.6h4.2v-5.6c0-0.2,0-0.3,0.1-0.4   s0.2-0.1,0.4-0.1h2c0.2,0,0.3,0,0.4,0.1c0.1,0.1,0.1,0.2,0.1,0.4V43.7z"/>
	<path class="st1" d="M227.9,43.7c0,0.2,0,0.3-0.1,0.4c-0.1,0.1-0.2,0.1-0.4,0.1h-2c-0.2,0-0.3,0-0.4-0.1c-0.1-0.1-0.1-0.2-0.1-0.4   V29.5c0-0.2,0-0.3,0.1-0.4s0.2-0.1,0.4-0.1h3.6c0.3,0,0.6,0,1,0s0.7,0.1,1.1,0.2s0.8,0.2,1.1,0.4c0.4,0.2,0.7,0.4,1,0.7   c0.3,0.3,0.5,0.7,0.7,1.2c0.2,0.5,0.3,1.1,0.3,1.8s-0.1,1.3-0.3,1.8s-0.4,0.9-0.7,1.2s-0.5,0.5-0.8,0.7s-0.5,0.3-0.7,0.4l3.3,5.9   c0,0.1,0.1,0.1,0.1,0.2c0,0.1,0.1,0.1,0.1,0.2c0,0.1,0,0.1-0.1,0.2c-0.1,0-0.2,0.1-0.3,0.1l-1.9,0.5c-0.1,0-0.2,0-0.3,0   s-0.3-0.2-0.5-0.7l-3-5.9H228v5.8H227.9z M228.5,35.6c0.4,0,0.7,0,1-0.1c0.3,0,0.6-0.1,0.8-0.3s0.4-0.4,0.6-0.7   c0.1-0.3,0.2-0.7,0.2-1.2s-0.1-0.9-0.2-1.1c-0.1-0.3-0.3-0.5-0.6-0.6c-0.2-0.1-0.5-0.2-0.8-0.2s-0.6,0-0.8,0h-0.8v4.2H228.5z"/>
	<path class="st1" d="M244.6,31.8c-0.1,0.1-0.2,0.2-0.2,0.2s-0.1-0.1-0.3-0.2s-0.4-0.2-0.7-0.3c-0.3-0.1-0.6-0.2-1-0.3   c-0.4-0.1-0.7-0.2-1.1-0.2c-0.3,0-0.5,0-0.7,0.1s-0.5,0.2-0.7,0.3c-0.2,0.1-0.4,0.3-0.5,0.5c-0.1,0.2-0.2,0.5-0.2,0.8   c0,0.4,0.1,0.8,0.4,1s0.7,0.5,1.1,0.7c0.4,0.2,0.9,0.5,1.5,0.7c0.5,0.3,1,0.6,1.5,0.9c0.6,0.4,1,0.9,1.4,1.5s0.5,1.3,0.5,2.1   c0,0.7-0.1,1.3-0.4,1.9c-0.2,0.6-0.6,1.1-1,1.5s-0.9,0.7-1.5,0.9s-1.2,0.3-1.9,0.3c-0.6,0-1.1-0.1-1.7-0.2c-0.6-0.1-1-0.2-1.5-0.4   c-0.4-0.1-0.8-0.3-1.1-0.4c-0.3-0.1-0.4-0.3-0.4-0.4v-0.1c0-0.1,0-0.1,0.1-0.2l0.5-1.5c0-0.1,0.1-0.2,0.2-0.2c0,0,0.1,0.1,0.4,0.2   c0.2,0.1,0.5,0.2,0.8,0.3s0.7,0.2,1.1,0.3c0.4,0.1,0.9,0.2,1.4,0.2c0.6,0,1.1-0.2,1.5-0.5s0.5-0.8,0.5-1.5c0-0.5-0.1-0.9-0.4-1.2   c-0.3-0.3-0.6-0.6-1-0.8s-0.9-0.5-1.4-0.7s-1.1-0.5-1.7-0.8c-0.6-0.4-1.1-0.8-1.4-1.3c-0.3-0.5-0.5-1.2-0.5-2.1   c0-0.8,0.1-1.5,0.4-2c0.3-0.6,0.6-1,1.1-1.4c0.4-0.4,1-0.6,1.5-0.8c0.6-0.2,1.2-0.3,1.8-0.3c0.5,0,1,0.1,1.6,0.2   c0.5,0.1,1,0.2,1.4,0.4c0.4,0.1,0.7,0.3,1,0.5c0.2,0.2,0.4,0.3,0.4,0.4s0,0.2-0.1,0.3L244.6,31.8z"/>
	<path class="st1" d="M253.7,39.3c0,0.2,0,0.3-0.1,0.4c-0.1,0.1-0.2,0.1-0.4,0.1h-5.4c-0.2,0-0.3,0-0.4-0.1   c-0.1-0.1-0.1-0.2-0.1-0.4v-1.6c0-0.2,0-0.3,0.1-0.4c0.1-0.1,0.2-0.1,0.4-0.1h5.4c0.2,0,0.3,0,0.4,0.1c0.1,0.1,0.1,0.2,0.1,0.4   V39.3z"/>
</g>
<g>
	<path class="st1" d="M126.6,65.6c0,0.2-0.1,0.3-0.1,0.3s-0.2,0.1-0.4,0.1h-2.5c-0.2,0-0.3,0-0.4-0.1c-0.1,0-0.1-0.1-0.1-0.3   l-3.9-14.1c0-0.1-0.1-0.2-0.1-0.2c0-0.1,0-0.2,0-0.2c0-0.1,0-0.1,0.1-0.2c0.1,0,0.2-0.1,0.3-0.1l2.2-0.4h0.1c0,0,0.1,0,0.2,0   s0.1,0,0.2,0.1c0.1,0,0.1,0.2,0.2,0.4l1.9,9c0,0.2,0.1,0.4,0.1,0.7s0.1,0.6,0.1,0.9c0.1,0.3,0.1,0.6,0.2,1c0.1,0.3,0.1,0.6,0.1,0.9   l0,0c0-0.3,0.1-0.5,0.1-0.9c0.1-0.3,0.1-0.6,0.2-1c0.1-0.3,0.1-0.6,0.2-0.9c0.1-0.3,0.1-0.5,0.2-0.7l2.2-9c0.1-0.2,0.1-0.4,0.2-0.4   s0.1-0.1,0.2-0.1c0.1,0,0.2,0,0.2,0h0.1l2,0.2c0.1,0,0.2,0.1,0.3,0.1s0.1,0.1,0.1,0.2c0,0.1,0,0.2,0,0.2c0,0.1,0,0.2-0.1,0.2   L126.6,65.6z"/>
	<path class="st1" d="M141.3,65.3c0,0.2,0,0.3-0.1,0.4s-0.2,0.1-0.4,0.1h-7.3c-0.2,0-0.3,0-0.4-0.1c-0.1-0.1-0.1-0.2-0.1-0.4V51   c0-0.2,0-0.3,0.1-0.4c0.1-0.1,0.2-0.1,0.4-0.1h7.3c0.2,0,0.4,0,0.4,0c0.1,0,0.1,0.1,0.1,0.2c0,0.1,0,0.1,0,0.1s0,0.1-0.1,0.2   l-0.4,1.5c0,0.2-0.1,0.3-0.2,0.3c-0.1,0-0.2,0.1-0.3,0.1H136v3.7h3.8c0.2,0,0.3,0,0.4,0.1c0.1,0.1,0.1,0.2,0.1,0.4v1.5   c0,0.2,0,0.3-0.1,0.4c-0.1,0.1-0.2,0.1-0.4,0.1H136v4.4h4.8c0.2,0,0.3,0,0.4,0.1c0.1,0.1,0.1,0.2,0.1,0.4V65.3z"/>
	<path class="st1" d="M147,65.3c0,0.2,0,0.3-0.1,0.4s-0.2,0.1-0.4,0.1h-2.1c-0.2,0-0.3,0-0.4-0.1c-0.1-0.1-0.1-0.2-0.1-0.4V51   c0-0.2,0-0.3,0.1-0.4c0.1-0.1,0.2-0.1,0.4-0.1h3.6c0.3,0,0.6,0,1,0s0.7,0.1,1.1,0.2c0.4,0.1,0.8,0.2,1.1,0.4c0.4,0.2,0.7,0.4,1,0.7   s0.5,0.7,0.7,1.2s0.3,1.1,0.3,1.8s-0.1,1.3-0.3,1.8s-0.4,0.9-0.7,1.2s-0.5,0.6-0.8,0.7c-0.3,0.2-0.5,0.3-0.7,0.4l3.3,5.9   c0,0.1,0.1,0.1,0.1,0.2s0.1,0.1,0.1,0.2s0,0.1-0.1,0.2c-0.1,0-0.2,0.1-0.3,0.1l-1.9,0.5c-0.1,0-0.2,0-0.3,0s-0.3-0.2-0.5-0.7l-3-6   H147V65.3z M147.6,57.2c0.4,0,0.7,0,1-0.1c0.3,0,0.6-0.1,0.9-0.3c0.2-0.2,0.4-0.4,0.6-0.7c0.1-0.3,0.2-0.7,0.2-1.2   s-0.1-0.9-0.2-1.1c-0.1-0.3-0.3-0.5-0.6-0.6c-0.2-0.1-0.5-0.2-0.8-0.2s-0.6,0-0.9,0H147v4.3h0.6V57.2z"/>
	<path class="st1" d="M167.1,65.3c0,0.2,0,0.3-0.1,0.4s-0.2,0.1-0.4,0.1h-1.5c-0.2,0-0.3,0-0.3-0.1c-0.1,0-0.1-0.1-0.2-0.3l-4.1-7.6   c-0.3-0.6-0.6-1.2-0.8-1.6c-0.2-0.4-0.3-0.9-0.5-1.4l0,0c0,0.1,0,0.5,0,0.9c0,0.5,0,1,0,1.5v8c0,0.2,0,0.3-0.1,0.4   s-0.2,0.1-0.4,0.1h-1.6c-0.2,0-0.3,0-0.4-0.1c-0.1-0.1-0.1-0.2-0.1-0.4V51c0-0.2,0-0.3,0.1-0.4c0.1-0.1,0.2-0.1,0.4-0.1h1.8   c0.2,0,0.3,0,0.3,0.1c0.1,0,0.1,0.1,0.2,0.2l3.7,6.9c0.3,0.6,0.6,1.2,0.8,1.7s0.4,1.1,0.5,1.5l0,0c0-0.2,0-0.4,0-0.7s0-0.5,0-0.8   s0-0.5,0-0.8s0-0.5,0-0.6v-7c0-0.2,0-0.3,0.1-0.4c0.1-0.1,0.2-0.1,0.4-0.1h1.6c0.2,0,0.3,0,0.4,0.1c0.1,0.1,0.1,0.2,0.1,0.4v14.3   H167.1z"/>
	<path class="st1" d="M179.1,65.3c0,0.2,0,0.3-0.1,0.4s-0.2,0.1-0.4,0.1h-7.3c-0.2,0-0.3,0-0.4-0.1c-0.1-0.1-0.1-0.2-0.1-0.4V51   c0-0.2,0-0.3,0.1-0.4c0.1-0.1,0.2-0.1,0.4-0.1h7.3c0.2,0,0.4,0,0.4,0c0.1,0,0.1,0.1,0.1,0.2c0,0.1,0,0.1,0,0.1s0,0.1-0.1,0.2   l-0.4,1.5c0,0.2-0.1,0.3-0.2,0.3c-0.1,0-0.2,0.1-0.3,0.1h-4.3v3.7h3.8c0.2,0,0.3,0,0.4,0.1c0.1,0.1,0.1,0.2,0.1,0.4v1.5   c0,0.2,0,0.3-0.1,0.4c-0.1,0.1-0.2,0.1-0.4,0.1h-3.8v4.4h4.8c0.2,0,0.3,0,0.4,0.1c0.1,0.1,0.1,0.2,0.1,0.4V65.3z"/>
	<path class="st1" d="M186.4,65.3c0,0.2,0,0.3-0.1,0.4s-0.2,0.1-0.4,0.1h-2.1c-0.2,0-0.3,0-0.4-0.1c-0.1-0.1-0.1-0.2-0.1-0.4V53.2   h-2.9c-0.2,0-0.3,0-0.3-0.1c0,0-0.1-0.1-0.1-0.3v-1.9c0-0.2,0-0.3,0.1-0.3c0,0,0.1-0.1,0.3-0.1h9.2c0.2,0,0.4,0,0.4,0   c0.1,0,0.1,0.1,0.1,0.2c0,0.1,0,0.1,0,0.1s0,0.1-0.1,0.2l-0.5,1.8c0,0.2-0.1,0.3-0.2,0.3c-0.1,0-0.2,0-0.3,0h-2.8v12.2H186.4z"/>
	<path class="st1" d="M200.7,65.4c0,0.2-0.1,0.3-0.1,0.3c-0.1,0-0.2,0.1-0.4,0.1h-8.9c-0.2,0-0.3,0-0.3-0.1c0,0-0.1-0.1-0.1-0.3   v-1.8l6-10.4h-5.5c-0.2,0-0.3-0.1-0.3-0.3v-0.1c0,0,0-0.1,0-0.2l0.4-1.7c0-0.2,0.1-0.3,0.1-0.3c0-0.1,0.2-0.1,0.4-0.1h7.7   c0.2,0,0.3,0,0.4,0.1c0.1,0.1,0.1,0.2,0.1,0.4v2l-5.9,10.1h6.4c0.2,0,0.3,0.1,0.3,0.3v0.1c0,0,0,0.1,0,0.2L200.7,65.4z"/>
	<path class="st1" d="M213.9,60.6c0,0.8-0.1,1.6-0.2,2.3c-0.2,0.7-0.4,1.3-0.9,1.7c-0.4,0.5-1,0.9-1.6,1.1c-0.7,0.3-1.6,0.4-2.6,0.4   c-1.1,0-1.9-0.1-2.6-0.4c-0.7-0.3-1.2-0.6-1.6-1.1c-0.4-0.5-0.7-1.1-0.9-1.7c-0.2-0.7-0.2-1.4-0.2-2.3V51c0-0.2,0-0.3,0.1-0.4   c0.1-0.1,0.2-0.1,0.4-0.1h2.1c0.2,0,0.3,0,0.4,0.1c0.1,0.1,0.1,0.2,0.1,0.4v9.6c0,0.4,0,0.8,0.1,1.2c0,0.4,0.1,0.7,0.3,1   s0.4,0.5,0.7,0.7s0.7,0.3,1.3,0.3s1-0.1,1.3-0.3s0.5-0.4,0.7-0.7s0.3-0.6,0.3-1s0.1-0.8,0.1-1.2V51c0-0.2,0-0.3,0.1-0.4   c0.1-0.1,0.2-0.1,0.4-0.1h2.1c0.2,0,0.3,0,0.4,0.1c0.1,0.1,0.1,0.2,0.1,0.4v9.6H213.9z"/>
	<path class="st1" d="M228,65.3c0,0.2,0,0.3-0.1,0.4s-0.2,0.1-0.4,0.1H226c-0.2,0-0.3,0-0.3-0.1c-0.1,0-0.1-0.1-0.2-0.3l-4.1-7.6   c-0.3-0.6-0.6-1.2-0.8-1.6c-0.2-0.4-0.3-0.9-0.5-1.4l0,0c0,0.1,0,0.5,0,0.9c0,0.5,0,1,0,1.5v8c0,0.2,0,0.3-0.1,0.4   s-0.2,0.1-0.4,0.1H218c-0.2,0-0.3,0-0.4-0.1s-0.1-0.2-0.1-0.4V51c0-0.2,0-0.3,0.1-0.4c0.1-0.1,0.2-0.1,0.4-0.1h1.8   c0.2,0,0.3,0,0.3,0.1c0.1,0,0.1,0.1,0.2,0.2l3.7,6.9c0.3,0.6,0.6,1.2,0.8,1.7s0.4,1.1,0.5,1.5l0,0c0-0.2,0-0.4,0-0.7s0-0.5,0-0.8   s0-0.5,0-0.8s0-0.5,0-0.6v-7c0-0.2,0-0.3,0.1-0.4c0.1-0.1,0.2-0.1,0.4-0.1h1.6c0.2,0,0.3,0,0.4,0.1c0.1,0.1,0.1,0.2,0.1,0.4v14.3   H228z"/>
	<path class="st1" d="M241.6,64.4c0,0.2-0.1,0.5-0.4,0.7c-0.3,0.2-0.7,0.4-1.1,0.5c-0.4,0.2-0.9,0.3-1.4,0.4s-1,0.1-1.5,0.1   c-2,0-3.4-0.6-4.5-1.9c-1-1.3-1.5-3.3-1.5-6s0.5-4.7,1.5-6c1-1.4,2.5-2,4.5-2c0.5,0,1,0.1,1.5,0.2c0.5,0.1,0.9,0.2,1.3,0.4   c0.4,0.1,0.7,0.3,1,0.5c0.2,0.2,0.4,0.3,0.4,0.4c0,0.1,0,0.2-0.1,0.3l-0.7,1.5c-0.1,0.1-0.2,0.2-0.2,0.2s-0.1-0.1-0.3-0.2   c-0.2-0.1-0.4-0.2-0.6-0.3c-0.3-0.1-0.6-0.2-0.9-0.3c-0.3-0.1-0.7-0.2-1.1-0.2c-0.6,0-1,0.1-1.4,0.4s-0.7,0.6-0.9,1.1   s-0.4,1.1-0.5,1.7c-0.1,0.7-0.1,1.4-0.1,2.3c0,0.9,0,1.7,0.1,2.4s0.2,1.3,0.5,1.8c0.2,0.5,0.5,0.9,0.9,1.1c0.4,0.3,0.9,0.4,1.5,0.4   c0.4,0,0.8,0,1-0.1c0.3-0.1,0.5-0.2,0.6-0.2v-3.2h-1.7c-0.2,0-0.3,0-0.4-0.1c-0.1-0.1-0.1-0.2-0.1-0.4v-1.5c0-0.2,0-0.3,0.1-0.4   c0.1-0.1,0.2-0.1,0.4-0.1h3.9c0.2,0,0.3,0,0.4,0.1c0.1,0.1,0.1,0.2,0.1,0.4v6H241.6z"/>
</g>
<g>
	<g>
		<defs>
			<path id="SVGID_1_" d="M65.2,29.6L29.6,65.2c-1.5,1.5-1.5,4.1,0,5.6l35.6,35.6c0.8,0.8,1.8,1.1,2.8,1.2l0,0c1,0,2-0.4,2.8-1.2     l35.6-35.6c1.5-1.5,1.5-4.1,0-5.6L70.8,29.6C70,28.8,69,28.4,68,28.4S66,28.8,65.2,29.6"/>
		</defs>
		<clipPath id="SVGID_00000109742551417501265340000000615625949299753375_">
			<use xlink:href="#SVGID_1_" style="overflow:visible;"/>
		</clipPath>
		
			<linearGradient id="SVGID_00000130633111957090715540000011316092198461513148_" gradientUnits="userSpaceOnUse" x1="93.439" y1="-166.1773" x2="94.0253" y2="-166.1773" gradientTransform="matrix(0 -135.0919 135.0919 0 22517.2617 12730.4551)">
			<stop offset="0" style="stop-color:#133370"/>
			<stop offset="7.727270e-04" style="stop-color:#133370"/>
			<stop offset="7.473117e-02" style="stop-color:#1D346F"/>
			<stop offset="0.1801" style="stop-color:#31376D"/>
			<stop offset="0.3043" style="stop-color:#4C3C69"/>
			<stop offset="0.443" style="stop-color:#6F435F"/>
			<stop offset="0.5935" style="stop-color:#9A4A4D"/>
			<stop offset="0.7516" style="stop-color:#CE522C"/>
			<stop offset="0.8291" style="stop-color:#EA560D"/>
			<stop offset="1" style="stop-color:#EA560D"/>
		</linearGradient>
		
			<rect x="28.1" y="28.4" style="clip-path:url(#SVGID_00000109742551417501265340000000615625949299753375_);fill:url(#SVGID_00000130633111957090715540000011316092198461513148_);" width="79.9" height="79.2"/>
	</g>
	<g>
		<defs>
			<path id="SVGID_00000170270861390776798130000004646825479341806761_" d="M65.2,29.6L29.6,65.2c-1.5,1.5-1.5,4.1,0,5.6l35.6,35.6     c0.8,0.8,1.8,1.1,2.8,1.2l0,0c1,0,2-0.4,2.8-1.2l35.6-35.6c1.5-1.5,1.5-4.1,0-5.6L70.8,29.6C70,28.8,69,28.4,68,28.4     S66,28.8,65.2,29.6"/>
		</defs>
		<clipPath id="SVGID_00000133492221409682609470000015354932998505764248_">
			<use xlink:href="#SVGID_00000170270861390776798130000004646825479341806761_" style="overflow:visible;"/>
		</clipPath>
		<path style="clip-path:url(#SVGID_00000133492221409682609470000015354932998505764248_);fill:#FFFFFF;" d="M83.4,55    c-0.1,0.1-0.3,0.1-0.4,0l-2.6-2.6c-0.1-0.1-0.1-0.3,0-0.4l2.6-2.6c0.1-0.1,0.3-0.1,0.4,0L86,52c0.1,0.1,0.1,0.3,0,0.4L83.4,55z"/>
	</g>
	<g>
		<defs>
			<path id="SVGID_00000115502666550512380360000011754447847930591363_" d="M65.2,29.6L29.6,65.2c-1.5,1.5-1.5,4.1,0,5.6l35.6,35.6     c0.8,0.8,1.8,1.1,2.8,1.2l0,0c1,0,2-0.4,2.8-1.2l35.6-35.6c1.5-1.5,1.5-4.1,0-5.6L70.8,29.6C70,28.8,69,28.4,68,28.4     S66,28.8,65.2,29.6"/>
		</defs>
		<clipPath id="SVGID_00000164509626169553128970000010425561798391368619_">
			<use xlink:href="#SVGID_00000115502666550512380360000011754447847930591363_" style="overflow:visible;"/>
		</clipPath>
		<path style="clip-path:url(#SVGID_00000164509626169553128970000010425561798391368619_);fill:#FFFFFF;" d="M48,76    c-0.3,0.3-0.7,0.3-1,0l-6.3-6.3c-0.3-0.3-0.3-0.7,0-1l6.3-6.3c0.3-0.3,0.7-0.3,1,0l6.3,6.3c0.3,0.3,0.3,0.7,0,1L48,76z"/>
	</g>
	<g>
		<defs>
			<path id="SVGID_00000183927196318089123150000009624999866342169507_" d="M65.2,29.6L29.6,65.2c-1.5,1.5-1.5,4.1,0,5.6l35.6,35.6     c0.8,0.8,1.8,1.1,2.8,1.2l0,0c1,0,2-0.4,2.8-1.2l35.6-35.6c1.5-1.5,1.5-4.1,0-5.6L70.8,29.6C70,28.8,69,28.4,68,28.4     S66,28.8,65.2,29.6"/>
		</defs>
		<clipPath id="SVGID_00000099656619998639214000000004169393188518710661_">
			<use xlink:href="#SVGID_00000183927196318089123150000009624999866342169507_" style="overflow:visible;"/>
		</clipPath>
		<path style="clip-path:url(#SVGID_00000099656619998639214000000004169393188518710661_);fill:#FFFFFF;" d="M81.7,80.6    c-0.2,0.2-0.5,0.2-0.7,0l-4.4-4.4c-0.2-0.2-0.2-0.5,0-0.7l4.4-4.4c0.2-0.2,0.5-0.2,0.7,0l4.4,4.4c0.2,0.2,0.2,0.5,0,0.7L81.7,80.6    z"/>
	</g>
	<g>
		<defs>
			<path id="SVGID_00000034792109997012093910000000484978990708638341_" d="M65.2,29.6L29.6,65.2c-1.5,1.5-1.5,4.1,0,5.6l35.6,35.6     c0.8,0.8,1.8,1.1,2.8,1.2l0,0c1,0,2-0.4,2.8-1.2l35.6-35.6c1.5-1.5,1.5-4.1,0-5.6L70.8,29.6C70,28.8,69,28.4,68,28.4     S66,28.8,65.2,29.6"/>
		</defs>
		<clipPath id="SVGID_00000183952175038093505540000004550499310082017173_">
			<use xlink:href="#SVGID_00000034792109997012093910000000484978990708638341_" style="overflow:visible;"/>
		</clipPath>
		
			<line style="clip-path:url(#SVGID_00000183952175038093505540000004550499310082017173_);fill:none;stroke:#FFFFFF;stroke-width:1.017;" x1="47.3" y1="69.2" x2="76.9" y2="100.3"/>
	</g>
	<g>
		<defs>
			<path id="SVGID_00000042708294851334127360000013591187808354873790_" d="M65.2,29.6L29.6,65.2c-1.5,1.5-1.5,4.1,0,5.6l35.6,35.6     c0.8,0.8,1.8,1.1,2.8,1.2l0,0c1,0,2-0.4,2.8-1.2l35.6-35.6c1.5-1.5,1.5-4.1,0-5.6L70.8,29.6C70,28.8,69,28.4,68,28.4     S66,28.8,65.2,29.6"/>
		</defs>
		<clipPath id="SVGID_00000038413108570224789770000000457714162885367986_">
			<use xlink:href="#SVGID_00000042708294851334127360000013591187808354873790_" style="overflow:visible;"/>
		</clipPath>
		
			<line style="clip-path:url(#SVGID_00000038413108570224789770000000457714162885367986_);fill:none;stroke:#FFFFFF;stroke-width:1.017;" x1="81.3" y1="76.6" x2="83.1" y2="52.1"/>
	</g>
	<g>
		<defs>
			<path id="SVGID_00000042007951165636071760000009295895650066767805_" d="M65.2,29.6L29.6,65.2c-1.5,1.5-1.5,4.1,0,5.6l35.6,35.6     c0.8,0.8,1.8,1.1,2.8,1.2l0,0c1,0,2-0.4,2.8-1.2l35.6-35.6c1.5-1.5,1.5-4.1,0-5.6L70.8,29.6C70,28.8,69,28.4,68,28.4     S66,28.8,65.2,29.6"/>
		</defs>
		<clipPath id="SVGID_00000042012231443490813820000009893742412010340266_">
			<use xlink:href="#SVGID_00000042007951165636071760000009295895650066767805_" style="overflow:visible;"/>
		</clipPath>
		
			<line style="clip-path:url(#SVGID_00000042012231443490813820000009893742412010340266_);fill:none;stroke:#FFFFFF;stroke-width:1.017;" x1="83.5" y1="52.1" x2="31.2" y2="76.7"/>
	</g>
	<g>
		<defs>
			<path id="SVGID_00000134249535272714100890000003810736495873974410_" d="M65.2,29.6L29.6,65.2c-1.5,1.5-1.5,4.1,0,5.6l35.6,35.6     c0.8,0.8,1.8,1.1,2.8,1.2l0,0c1,0,2-0.4,2.8-1.2l35.6-35.6c1.5-1.5,1.5-4.1,0-5.6L70.8,29.6C70,28.8,69,28.4,68,28.4     S66,28.8,65.2,29.6"/>
		</defs>
		<clipPath id="SVGID_00000109725410982424222730000005949214595825099431_">
			<use xlink:href="#SVGID_00000134249535272714100890000003810736495873974410_" style="overflow:visible;"/>
		</clipPath>
		
			<line style="clip-path:url(#SVGID_00000109725410982424222730000005949214595825099431_);fill:none;stroke:#FFFFFF;stroke-width:1.017;" x1="47.2" y1="69" x2="45.8" y2="45.4"/>
	</g>
	<g>
		<defs>
			<path id="SVGID_00000078763187913019039180000009357459565879685763_" d="M65.2,29.6L29.6,65.2c-1.5,1.5-1.5,4.1,0,5.6l35.6,35.6     c0.8,0.8,1.8,1.1,2.8,1.2l0,0c1,0,2-0.4,2.8-1.2l35.6-35.6c1.5-1.5,1.5-4.1,0-5.6L70.8,29.6C70,28.8,69,28.4,68,28.4     S66,28.8,65.2,29.6"/>
		</defs>
		<clipPath id="SVGID_00000104666868556805891190000010648737072730155958_">
			<use xlink:href="#SVGID_00000078763187913019039180000009357459565879685763_" style="overflow:visible;"/>
		</clipPath>
		
			<line style="clip-path:url(#SVGID_00000104666868556805891190000010648737072730155958_);fill:none;stroke:#FFFFFF;stroke-width:1.017;" x1="44.6" y1="69.6" x2="23.7" y2="68"/>
	</g>
	<g>
		<defs>
			<path id="SVGID_00000147194687582434105920000004516525590578350511_" d="M65.2,29.6L29.6,65.2c-1.5,1.5-1.5,4.1,0,5.6l35.6,35.6     c0.8,0.8,1.8,1.1,2.8,1.2l0,0c1,0,2-0.4,2.8-1.2l35.6-35.6c1.5-1.5,1.5-4.1,0-5.6L70.8,29.6C70,28.8,69,28.4,68,28.4     S66,28.8,65.2,29.6"/>
		</defs>
		<clipPath id="SVGID_00000018945949091210125690000004584781154701073302_">
			<use xlink:href="#SVGID_00000147194687582434105920000004516525590578350511_" style="overflow:visible;"/>
		</clipPath>
		
			<line style="clip-path:url(#SVGID_00000018945949091210125690000004584781154701073302_);fill:none;stroke:#FFFFFF;stroke-width:1.017;" x1="47.3" y1="68.8" x2="52.8" y2="101.1"/>
	</g>
	<g>
		<defs>
			<path id="SVGID_00000163045002666223272340000009815081457815415700_" d="M65.2,29.6L29.6,65.2c-1.5,1.5-1.5,4.1,0,5.6l35.6,35.6     c0.8,0.8,1.8,1.1,2.8,1.2l0,0c1,0,2-0.4,2.8-1.2l35.6-35.6c1.5-1.5,1.5-4.1,0-5.6L70.8,29.6C70,28.8,69,28.4,68,28.4     S66,28.8,65.2,29.6"/>
		</defs>
		<clipPath id="SVGID_00000030454100407957248450000010113165807620299657_">
			<use xlink:href="#SVGID_00000163045002666223272340000009815081457815415700_" style="overflow:visible;"/>
		</clipPath>
		
			<line style="clip-path:url(#SVGID_00000030454100407957248450000010113165807620299657_);fill:none;stroke:#FFFFFF;stroke-width:1.017;" x1="47.5" y1="68.7" x2="99.6" y2="80.8"/>
	</g>
	<g>
		<defs>
			<path id="SVGID_00000113330552710659567840000004120670421765624767_" d="M65.2,29.6L29.6,65.2c-1.5,1.5-1.5,4.1,0,5.6l35.6,35.6     c0.8,0.8,1.8,1.1,2.8,1.2l0,0c1,0,2-0.4,2.8-1.2l35.6-35.6c1.5-1.5,1.5-4.1,0-5.6L70.8,29.6C70,28.8,69,28.4,68,28.4     S66,28.8,65.2,29.6"/>
		</defs>
		<clipPath id="SVGID_00000012443140695016754210000017256813355879721909_">
			<use xlink:href="#SVGID_00000113330552710659567840000004120670421765624767_" style="overflow:visible;"/>
		</clipPath>
		
			<line style="clip-path:url(#SVGID_00000012443140695016754210000017256813355879721909_);fill:none;stroke:#FFFFFF;stroke-width:1.017;" x1="81.3" y1="76.4" x2="65.4" y2="111.8"/>
	</g>
	<g>
		<defs>
			<path id="SVGID_00000021830346029442795540000016638985275605567914_" d="M65.2,29.6L29.6,65.2c-1.5,1.5-1.5,4.1,0,5.6l35.6,35.6     c0.8,0.8,1.8,1.1,2.8,1.2l0,0c1,0,2-0.4,2.8-1.2l35.6-35.6c1.5-1.5,1.5-4.1,0-5.6L70.8,29.6C70,28.8,69,28.4,68,28.4     S66,28.8,65.2,29.6"/>
		</defs>
		<clipPath id="SVGID_00000127018898827017917160000004428230531656955550_">
			<use xlink:href="#SVGID_00000021830346029442795540000016638985275605567914_" style="overflow:visible;"/>
		</clipPath>
		<path style="clip-path:url(#SVGID_00000127018898827017917160000004428230531656955550_);fill:#F18500;" d="M73.4,86.3"/>
	</g>
	<g>
		<defs>
			<path id="SVGID_00000131338472472133056710000013391734703848006321_" d="M65.2,29.6L29.6,65.2c-1.5,1.5-1.5,4.1,0,5.6l35.6,35.6     c0.8,0.8,1.8,1.1,2.8,1.2l0,0c1,0,2-0.4,2.8-1.2l35.6-35.6c1.5-1.5,1.5-4.1,0-5.6L70.8,29.6C70,28.8,69,28.4,68,28.4     S66,28.8,65.2,29.6"/>
		</defs>
		<clipPath id="SVGID_00000098939301148899021860000012980445152472872605_">
			<use xlink:href="#SVGID_00000131338472472133056710000013391734703848006321_" style="overflow:visible;"/>
		</clipPath>
		
			<path style="clip-path:url(#SVGID_00000098939301148899021860000012980445152472872605_);fill:none;stroke:#FFFFFF;stroke-width:1.017;" d="    M73.4,86.3"/>
	</g>
	<g>
		<defs>
			<path id="SVGID_00000170277730738115220350000004636982342582890638_" d="M65.2,29.6L29.6,65.2c-1.5,1.5-1.5,4.1,0,5.6l35.6,35.6     c0.8,0.8,1.8,1.1,2.8,1.2l0,0c1,0,2-0.4,2.8-1.2l35.6-35.6c1.5-1.5,1.5-4.1,0-5.6L70.8,29.6C70,28.8,69,28.4,68,28.4     S66,28.8,65.2,29.6"/>
		</defs>
		<clipPath id="SVGID_00000024704590323951981920000015983474697678376629_">
			<use xlink:href="#SVGID_00000170277730738115220350000004636982342582890638_" style="overflow:visible;"/>
		</clipPath>
		
			<line style="clip-path:url(#SVGID_00000024704590323951981920000015983474697678376629_);fill:none;stroke:#FFFFFF;stroke-width:1.017;" x1="81.1" y1="76.5" x2="119.1" y2="72.4"/>
	</g>
	<g>
		<defs>
			<path id="SVGID_00000146494316890755867000000012222928121359205563_" d="M65.2,29.6L29.6,65.2c-1.5,1.5-1.5,4.1,0,5.6l35.6,35.6     c0.8,0.8,1.8,1.1,2.8,1.2l0,0c1,0,2-0.4,2.8-1.2l35.6-35.6c1.5-1.5,1.5-4.1,0-5.6L70.8,29.6C70,28.8,69,28.4,68,28.4     S66,28.8,65.2,29.6"/>
		</defs>
		<clipPath id="SVGID_00000147923776134681607940000002628013741407207871_">
			<use xlink:href="#SVGID_00000146494316890755867000000012222928121359205563_" style="overflow:visible;"/>
		</clipPath>
		
			<line style="clip-path:url(#SVGID_00000147923776134681607940000002628013741407207871_);fill:none;stroke:#FFFFFF;stroke-width:1.017;" x1="83.3" y1="51.9" x2="106.7" y2="76.4"/>
	</g>
	<g>
		<defs>
			<path id="SVGID_00000108284987506666620010000011557144350782151826_" d="M65.2,29.6L29.6,65.2c-1.5,1.5-1.5,4.1,0,5.6l35.6,35.6     c0.8,0.8,1.8,1.1,2.8,1.2l0,0c1,0,2-0.4,2.8-1.2l35.6-35.6c1.5-1.5,1.5-4.1,0-5.6L70.8,29.6C70,28.8,69,28.4,68,28.4     S66,28.8,65.2,29.6"/>
		</defs>
		<clipPath id="SVGID_00000065057498501665385880000014152795195997485482_">
			<use xlink:href="#SVGID_00000108284987506666620010000011557144350782151826_" style="overflow:visible;"/>
		</clipPath>
		
			<line style="clip-path:url(#SVGID_00000065057498501665385880000014152795195997485482_);fill:none;stroke:#FFFFFF;stroke-width:1.017;" x1="83.5" y1="52.1" x2="89.8" y2="45.6"/>
	</g>
	<g>
		<defs>
			<path id="SVGID_00000181084978231966405570000004898893301069083525_" d="M65.2,29.6L29.6,65.2c-1.5,1.5-1.5,4.1,0,5.6l35.6,35.6     c0.8,0.8,1.8,1.1,2.8,1.2l0,0c1,0,2-0.4,2.8-1.2l35.6-35.6c1.5-1.5,1.5-4.1,0-5.6L70.8,29.6C70,28.8,69,28.4,68,28.4     S66,28.8,65.2,29.6"/>
		</defs>
		<clipPath id="SVGID_00000078004178011864412680000008131533195244303798_">
			<use xlink:href="#SVGID_00000181084978231966405570000004898893301069083525_" style="overflow:visible;"/>
		</clipPath>
		
			<line style="clip-path:url(#SVGID_00000078004178011864412680000008131533195244303798_);fill:none;stroke:#FFFFFF;stroke-width:1.017;" x1="83.1" y1="51.9" x2="38.4" y2="54.7"/>
	</g>
	<g>
		<defs>
			<path id="SVGID_00000052061659917089905170000018023419562579136906_" d="M65.2,29.6L29.6,65.2c-1.5,1.5-1.5,4.1,0,5.6l35.6,35.6     c0.8,0.8,1.8,1.1,2.8,1.2l0,0c1,0,2-0.4,2.8-1.2l35.6-35.6c1.5-1.5,1.5-4.1,0-5.6L70.8,29.6C70,28.8,69,28.4,68,28.4     S66,28.8,65.2,29.6"/>
		</defs>
		<clipPath id="SVGID_00000031179914814947235490000013530322060167685002_">
			<use xlink:href="#SVGID_00000052061659917089905170000018023419562579136906_" style="overflow:visible;"/>
		</clipPath>
		
			<line style="clip-path:url(#SVGID_00000031179914814947235490000013530322060167685002_);fill:none;stroke:#FFFFFF;stroke-width:1.017;" x1="47.2" y1="68.5" x2="71" y2="24.8"/>
	</g>
	<g>
		<defs>
			<path id="SVGID_00000134954988697774085150000016394332398260268688_" d="M65.2,29.6L29.6,65.2c-1.5,1.5-1.5,4.1,0,5.6l35.6,35.6     c0.8,0.8,1.8,1.1,2.8,1.2l0,0c1,0,2-0.4,2.8-1.2l35.6-35.6c1.5-1.5,1.5-4.1,0-5.6L70.8,29.6C70,28.8,69,28.4,68,28.4     S66,28.8,65.2,29.6"/>
		</defs>
		<clipPath id="SVGID_00000038386212776616043150000017631715201262972582_">
			<use xlink:href="#SVGID_00000134954988697774085150000016394332398260268688_" style="overflow:visible;"/>
		</clipPath>
		
			<line style="clip-path:url(#SVGID_00000038386212776616043150000017631715201262972582_);fill:none;stroke:#FFFFFF;stroke-width:1.017;" x1="81.1" y1="74.8" x2="62.1" y2="24.7"/>
	</g>
</g>
</svg>